<svg xmlns="http://www.w3.org/2000/svg" viewBox="0 0 64 64">
  <rect width="64" height="64" rx="14" fill="#030816"/>
  <path d="M32 9c-9 0-16 7-16 16v14c0 9 7 16 16 16s16-7 16-16V25C48 16 41 9 32 9Z" fill="none" stroke="#00b8ff" stroke-width="4"/>
  <path d="M32 9v46" stroke="#ff931e" stroke-width="4" stroke-linecap="round"/>
  <path d="M22 24h9M22 33h9M22 42h9M42 24h-6M42 33h-6M42 42h-6" stroke="#ffffff" stroke-width="3" stroke-linecap="round"/>
  <circle cx="22" cy="24" r="3" fill="#00b8ff"/>
  <circle cx="22" cy="33" r="3" fill="#00b8ff"/>
  <circle cx="22" cy="42" r="3" fill="#00b8ff"/>
  <circle cx="42" cy="24" r="3" fill="#ff931e"/>
  <circle cx="42" cy="33" r="3" fill="#ff931e"/>
  <circle cx="42" cy="42" r="3" fill="#ff931e"/>
</svg>
