<svg xmlns="http://www.w3.org/2000/svg" viewBox="0 0 160 96" role="img" aria-labelledby="title desc">
  <title id="title">Poultry farm client logo</title>
  <desc id="desc">A compact poultry farm logo with a hen, egg, and farm line.</desc>
  <defs>
    <linearGradient id="poultryStroke" x1="0" y1="0" x2="1" y2="1">
      <stop offset="0" stop-color="#00b8ff"/>
      <stop offset="1" stop-color="#ff931e"/>
    </linearGradient>
  </defs>
  <rect width="160" height="96" rx="18" fill="#071126"/>
  <rect x="5" y="5" width="150" height="86" rx="15" fill="none" stroke="url(#poultryStroke)" stroke-width="3"/>
  <path d="M46 64c5-22 22-35 43-30 18 4 27 17 28 30H46z" fill="#ffffff"/>
  <path d="M88 34c2-12 13-15 21-8-8 1-12 5-13 12" fill="#ff931e"/>
  <circle cx="91" cy="42" r="3" fill="#071126"/>
  <path d="M115 43l15 7-15 7z" fill="#ff931e"/>
  <path d="M47 65h76" stroke="#47f0a9" stroke-width="5" stroke-linecap="round"/>
  <path d="M40 72h88" stroke="#00b8ff" stroke-width="3" stroke-linecap="round"/>
  <ellipse cx="57" cy="57" rx="8" ry="11" fill="#d8f5ff" stroke="#00b8ff" stroke-width="2"/>
  <text x="80" y="86" text-anchor="middle" fill="#ffffff" font-family="Arial, sans-serif" font-size="12" font-weight="800">POULTRY</text>
</svg>
